<mxfile host="app.diagrams.net" modified="2023-11-10T05:56:46.654Z" agent="Mozilla/5.0 (Windows NT 10.0; Win64; x64) AppleWebKit/537.36 (KHTML, like Gecko) Chrome/119.0.0.0 Safari/537.36" etag="pbNMDXRn9KRf5OIdnUTI" version="22.0.8" type="github">
  <diagram id="C5RBs43oDa-KdzZeNtuy" name="Page-1">
    <mxGraphModel dx="1065" dy="1634" grid="1" gridSize="10" guides="1" tooltips="1" connect="1" arrows="1" fold="1" page="1" pageScale="1" pageWidth="827" pageHeight="1169" math="0" shadow="0">
      <root>
        <mxCell id="WIyWlLk6GJQsqaUBKTNV-0" />
        <mxCell id="WIyWlLk6GJQsqaUBKTNV-1" parent="WIyWlLk6GJQsqaUBKTNV-0" />
        <mxCell id="gE01lS772OINtCkV0J_o-1" value="START" style="rounded=1;whiteSpace=wrap;html=1;arcSize=50;" vertex="1" parent="WIyWlLk6GJQsqaUBKTNV-1">
          <mxGeometry x="190" y="-1120" width="120" height="30" as="geometry" />
        </mxCell>
        <mxCell id="gE01lS772OINtCkV0J_o-43" value="int x, n" style="shape=hexagon;perimeter=hexagonPerimeter2;whiteSpace=wrap;html=1;fixedSize=1;" vertex="1" parent="WIyWlLk6GJQsqaUBKTNV-1">
          <mxGeometry x="205" y="-1050" width="90" height="50" as="geometry" />
        </mxCell>
        <mxCell id="gE01lS772OINtCkV0J_o-44" value="input x" style="shape=parallelogram;perimeter=parallelogramPerimeter;whiteSpace=wrap;html=1;fixedSize=1;" vertex="1" parent="WIyWlLk6GJQsqaUBKTNV-1">
          <mxGeometry x="205" y="-960" width="90" height="40" as="geometry" />
        </mxCell>
        <mxCell id="gE01lS772OINtCkV0J_o-45" value="x &amp;lt; 1" style="rhombus;whiteSpace=wrap;html=1;" vertex="1" parent="WIyWlLk6GJQsqaUBKTNV-1">
          <mxGeometry x="215" y="-870" width="70" height="70" as="geometry" />
        </mxCell>
        <mxCell id="gE01lS772OINtCkV0J_o-46" value="print &quot;bukan bilangan keren&quot;" style="shape=parallelogram;perimeter=parallelogramPerimeter;whiteSpace=wrap;html=1;fixedSize=1;" vertex="1" parent="WIyWlLk6GJQsqaUBKTNV-1">
          <mxGeometry x="350" y="-860" width="110" height="50" as="geometry" />
        </mxCell>
        <mxCell id="gE01lS772OINtCkV0J_o-47" value="n = 1" style="whiteSpace=wrap;html=1;aspect=fixed;" vertex="1" parent="WIyWlLk6GJQsqaUBKTNV-1">
          <mxGeometry x="220" y="-750" width="60" height="60" as="geometry" />
        </mxCell>
        <mxCell id="gE01lS772OINtCkV0J_o-48" value="x % n.i = 0" style="rhombus;whiteSpace=wrap;html=1;" vertex="1" parent="WIyWlLk6GJQsqaUBKTNV-1">
          <mxGeometry x="215" y="-640" width="70" height="70" as="geometry" />
        </mxCell>
        <mxCell id="gE01lS772OINtCkV0J_o-50" value="n = n + 1" style="whiteSpace=wrap;html=1;aspect=fixed;" vertex="1" parent="WIyWlLk6GJQsqaUBKTNV-1">
          <mxGeometry x="220" y="-530" width="60" height="60" as="geometry" />
        </mxCell>
        <mxCell id="gE01lS772OINtCkV0J_o-52" value="x % max. 2 bilangan bulat positif selain 1 dan x == 0" style="rhombus;whiteSpace=wrap;html=1;" vertex="1" parent="WIyWlLk6GJQsqaUBKTNV-1">
          <mxGeometry x="167.5" y="-440" width="165" height="180" as="geometry" />
        </mxCell>
        <mxCell id="gE01lS772OINtCkV0J_o-53" value="print &quot;merupakan bilangan keren&quot;" style="shape=parallelogram;perimeter=parallelogramPerimeter;whiteSpace=wrap;html=1;fixedSize=1;" vertex="1" parent="WIyWlLk6GJQsqaUBKTNV-1">
          <mxGeometry x="190" y="-200" width="120" height="60" as="geometry" />
        </mxCell>
        <mxCell id="gE01lS772OINtCkV0J_o-54" value="print &quot;bukan &lt;br&gt;bilangan keren&quot;" style="shape=parallelogram;perimeter=parallelogramPerimeter;whiteSpace=wrap;html=1;fixedSize=1;" vertex="1" parent="WIyWlLk6GJQsqaUBKTNV-1">
          <mxGeometry x="400" y="-380" width="120" height="60" as="geometry" />
        </mxCell>
        <mxCell id="gE01lS772OINtCkV0J_o-55" value="End" style="rounded=1;whiteSpace=wrap;html=1;arcSize=50;" vertex="1" parent="WIyWlLk6GJQsqaUBKTNV-1">
          <mxGeometry x="190" y="-90" width="120" height="30" as="geometry" />
        </mxCell>
        <mxCell id="gE01lS772OINtCkV0J_o-56" value="" style="endArrow=classic;html=1;rounded=0;exitX=0.5;exitY=1;exitDx=0;exitDy=0;entryX=0.5;entryY=0;entryDx=0;entryDy=0;" edge="1" parent="WIyWlLk6GJQsqaUBKTNV-1" source="gE01lS772OINtCkV0J_o-1" target="gE01lS772OINtCkV0J_o-43">
          <mxGeometry width="50" height="50" relative="1" as="geometry">
            <mxPoint x="300" y="-880" as="sourcePoint" />
            <mxPoint x="350" y="-930" as="targetPoint" />
          </mxGeometry>
        </mxCell>
        <mxCell id="gE01lS772OINtCkV0J_o-57" value="" style="endArrow=classic;html=1;rounded=0;exitX=0.5;exitY=1;exitDx=0;exitDy=0;entryX=0.5;entryY=0;entryDx=0;entryDy=0;" edge="1" parent="WIyWlLk6GJQsqaUBKTNV-1" source="gE01lS772OINtCkV0J_o-43" target="gE01lS772OINtCkV0J_o-44">
          <mxGeometry width="50" height="50" relative="1" as="geometry">
            <mxPoint x="260" y="-1080" as="sourcePoint" />
            <mxPoint x="260" y="-1040" as="targetPoint" />
          </mxGeometry>
        </mxCell>
        <mxCell id="gE01lS772OINtCkV0J_o-58" value="" style="endArrow=classic;html=1;rounded=0;exitX=0.5;exitY=1;exitDx=0;exitDy=0;entryX=0.5;entryY=0;entryDx=0;entryDy=0;" edge="1" parent="WIyWlLk6GJQsqaUBKTNV-1" source="gE01lS772OINtCkV0J_o-44" target="gE01lS772OINtCkV0J_o-45">
          <mxGeometry width="50" height="50" relative="1" as="geometry">
            <mxPoint x="270" y="-1070" as="sourcePoint" />
            <mxPoint x="270" y="-1030" as="targetPoint" />
          </mxGeometry>
        </mxCell>
        <mxCell id="gE01lS772OINtCkV0J_o-60" value="" style="endArrow=classic;html=1;rounded=0;exitX=1;exitY=0.5;exitDx=0;exitDy=0;entryX=0;entryY=0.5;entryDx=0;entryDy=0;" edge="1" parent="WIyWlLk6GJQsqaUBKTNV-1" source="gE01lS772OINtCkV0J_o-45" target="gE01lS772OINtCkV0J_o-46">
          <mxGeometry relative="1" as="geometry">
            <mxPoint x="270" y="-810" as="sourcePoint" />
            <mxPoint x="370" y="-810" as="targetPoint" />
          </mxGeometry>
        </mxCell>
        <mxCell id="gE01lS772OINtCkV0J_o-61" value="Benar" style="edgeLabel;resizable=0;html=1;align=center;verticalAlign=middle;" connectable="0" vertex="1" parent="gE01lS772OINtCkV0J_o-60">
          <mxGeometry relative="1" as="geometry">
            <mxPoint x="-4" as="offset" />
          </mxGeometry>
        </mxCell>
        <mxCell id="gE01lS772OINtCkV0J_o-62" value="" style="endArrow=classic;html=1;rounded=0;exitX=0.5;exitY=1;exitDx=0;exitDy=0;entryX=0.5;entryY=0;entryDx=0;entryDy=0;" edge="1" parent="WIyWlLk6GJQsqaUBKTNV-1" source="gE01lS772OINtCkV0J_o-45" target="gE01lS772OINtCkV0J_o-47">
          <mxGeometry relative="1" as="geometry">
            <mxPoint x="270" y="-810" as="sourcePoint" />
            <mxPoint x="370" y="-810" as="targetPoint" />
          </mxGeometry>
        </mxCell>
        <mxCell id="gE01lS772OINtCkV0J_o-63" value="Salah" style="edgeLabel;resizable=0;html=1;align=center;verticalAlign=middle;" connectable="0" vertex="1" parent="gE01lS772OINtCkV0J_o-62">
          <mxGeometry relative="1" as="geometry">
            <mxPoint y="-2" as="offset" />
          </mxGeometry>
        </mxCell>
        <mxCell id="gE01lS772OINtCkV0J_o-64" value="" style="endArrow=classic;html=1;rounded=0;exitX=0.5;exitY=1;exitDx=0;exitDy=0;entryX=0.5;entryY=0;entryDx=0;entryDy=0;" edge="1" parent="WIyWlLk6GJQsqaUBKTNV-1" source="gE01lS772OINtCkV0J_o-48" target="gE01lS772OINtCkV0J_o-50">
          <mxGeometry relative="1" as="geometry">
            <mxPoint x="270" y="-610" as="sourcePoint" />
            <mxPoint x="370" y="-610" as="targetPoint" />
          </mxGeometry>
        </mxCell>
        <mxCell id="gE01lS772OINtCkV0J_o-65" value="Benar" style="edgeLabel;resizable=0;html=1;align=center;verticalAlign=middle;" connectable="0" vertex="1" parent="gE01lS772OINtCkV0J_o-64">
          <mxGeometry relative="1" as="geometry">
            <mxPoint y="-4" as="offset" />
          </mxGeometry>
        </mxCell>
        <mxCell id="gE01lS772OINtCkV0J_o-66" value="" style="endArrow=classic;html=1;rounded=0;exitX=0.5;exitY=1;exitDx=0;exitDy=0;entryX=0.5;entryY=0;entryDx=0;entryDy=0;" edge="1" parent="WIyWlLk6GJQsqaUBKTNV-1" source="gE01lS772OINtCkV0J_o-47" target="gE01lS772OINtCkV0J_o-48">
          <mxGeometry width="50" height="50" relative="1" as="geometry">
            <mxPoint x="300" y="-580" as="sourcePoint" />
            <mxPoint x="350" y="-630" as="targetPoint" />
          </mxGeometry>
        </mxCell>
        <mxCell id="gE01lS772OINtCkV0J_o-67" value="" style="endArrow=classic;html=1;rounded=0;exitX=1;exitY=0.5;exitDx=0;exitDy=0;entryX=1;entryY=0.5;entryDx=0;entryDy=0;" edge="1" parent="WIyWlLk6GJQsqaUBKTNV-1" source="gE01lS772OINtCkV0J_o-50" target="gE01lS772OINtCkV0J_o-48">
          <mxGeometry width="50" height="50" relative="1" as="geometry">
            <mxPoint x="300" y="-580" as="sourcePoint" />
            <mxPoint x="350" y="-630" as="targetPoint" />
            <Array as="points">
              <mxPoint x="350" y="-500" />
              <mxPoint x="350" y="-605" />
            </Array>
          </mxGeometry>
        </mxCell>
        <mxCell id="gE01lS772OINtCkV0J_o-68" value="" style="endArrow=classic;html=1;rounded=0;exitX=0;exitY=0.5;exitDx=0;exitDy=0;entryX=0;entryY=0.5;entryDx=0;entryDy=0;" edge="1" parent="WIyWlLk6GJQsqaUBKTNV-1" source="gE01lS772OINtCkV0J_o-52" target="gE01lS772OINtCkV0J_o-48">
          <mxGeometry relative="1" as="geometry">
            <mxPoint x="270" y="-410" as="sourcePoint" />
            <mxPoint x="370" y="-410" as="targetPoint" />
            <Array as="points">
              <mxPoint x="120" y="-350" />
              <mxPoint x="120" y="-605" />
            </Array>
          </mxGeometry>
        </mxCell>
        <mxCell id="gE01lS772OINtCkV0J_o-69" value="Salah" style="edgeLabel;resizable=0;html=1;align=center;verticalAlign=middle;" connectable="0" vertex="1" parent="gE01lS772OINtCkV0J_o-68">
          <mxGeometry relative="1" as="geometry" />
        </mxCell>
        <mxCell id="gE01lS772OINtCkV0J_o-72" value="" style="endArrow=classic;html=1;rounded=0;exitX=1;exitY=0.5;exitDx=0;exitDy=0;entryX=0;entryY=0.5;entryDx=0;entryDy=0;" edge="1" parent="WIyWlLk6GJQsqaUBKTNV-1" source="gE01lS772OINtCkV0J_o-52" target="gE01lS772OINtCkV0J_o-54">
          <mxGeometry relative="1" as="geometry">
            <mxPoint x="270" y="-410" as="sourcePoint" />
            <mxPoint x="370" y="-410" as="targetPoint" />
          </mxGeometry>
        </mxCell>
        <mxCell id="gE01lS772OINtCkV0J_o-73" value="Salah" style="edgeLabel;resizable=0;html=1;align=center;verticalAlign=middle;" connectable="0" vertex="1" parent="gE01lS772OINtCkV0J_o-72">
          <mxGeometry relative="1" as="geometry">
            <mxPoint x="-4" as="offset" />
          </mxGeometry>
        </mxCell>
        <mxCell id="gE01lS772OINtCkV0J_o-74" value="" style="endArrow=classic;html=1;rounded=0;exitX=0.5;exitY=1;exitDx=0;exitDy=0;entryX=0.5;entryY=0;entryDx=0;entryDy=0;" edge="1" parent="WIyWlLk6GJQsqaUBKTNV-1" source="gE01lS772OINtCkV0J_o-52" target="gE01lS772OINtCkV0J_o-53">
          <mxGeometry relative="1" as="geometry">
            <mxPoint x="270" y="-110" as="sourcePoint" />
            <mxPoint x="370" y="-110" as="targetPoint" />
          </mxGeometry>
        </mxCell>
        <mxCell id="gE01lS772OINtCkV0J_o-75" value="Benar" style="edgeLabel;resizable=0;html=1;align=center;verticalAlign=middle;" connectable="0" vertex="1" parent="gE01lS772OINtCkV0J_o-74">
          <mxGeometry relative="1" as="geometry" />
        </mxCell>
        <mxCell id="gE01lS772OINtCkV0J_o-76" value="" style="endArrow=classic;html=1;rounded=0;exitX=0.5;exitY=1;exitDx=0;exitDy=0;entryX=0.5;entryY=0;entryDx=0;entryDy=0;" edge="1" parent="WIyWlLk6GJQsqaUBKTNV-1" source="gE01lS772OINtCkV0J_o-53" target="gE01lS772OINtCkV0J_o-55">
          <mxGeometry width="50" height="50" relative="1" as="geometry">
            <mxPoint x="310" y="-50" as="sourcePoint" />
            <mxPoint x="350" y="-130" as="targetPoint" />
          </mxGeometry>
        </mxCell>
        <mxCell id="gE01lS772OINtCkV0J_o-77" value="" style="endArrow=classic;html=1;rounded=0;exitX=1;exitY=0.5;exitDx=0;exitDy=0;entryX=1;entryY=0.5;entryDx=0;entryDy=0;" edge="1" parent="WIyWlLk6GJQsqaUBKTNV-1" source="gE01lS772OINtCkV0J_o-54" target="gE01lS772OINtCkV0J_o-55">
          <mxGeometry width="50" height="50" relative="1" as="geometry">
            <mxPoint x="300" y="-80" as="sourcePoint" />
            <mxPoint x="350" y="-130" as="targetPoint" />
            <Array as="points">
              <mxPoint x="560" y="-350" />
              <mxPoint x="560" y="-75" />
            </Array>
          </mxGeometry>
        </mxCell>
        <mxCell id="gE01lS772OINtCkV0J_o-78" value="" style="endArrow=none;html=1;rounded=0;exitX=1;exitY=0.5;exitDx=0;exitDy=0;" edge="1" parent="WIyWlLk6GJQsqaUBKTNV-1" source="gE01lS772OINtCkV0J_o-46">
          <mxGeometry width="50" height="50" relative="1" as="geometry">
            <mxPoint x="490" y="-370" as="sourcePoint" />
            <mxPoint x="560" y="-350" as="targetPoint" />
            <Array as="points">
              <mxPoint x="560" y="-835" />
            </Array>
          </mxGeometry>
        </mxCell>
      </root>
    </mxGraphModel>
  </diagram>
</mxfile>
